<?xml version="1.0" encoding="iso-8859-1"?>
<!-- Generator: Adobe Illustrator 19.0.0, SVG Export Plug-In . SVG Version: 6.00 Build 0)  -->
<svg version="1.1" id="Layer_1" xmlns="http://www.w3.org/2000/svg" xmlns:xlink="http://www.w3.org/1999/xlink" x="0px" y="0px"
	 viewBox="0 0 512 512" style="enable-background:new 0 0 512 512;" xml:space="preserve">
<g>
	<circle style="fill:#ED593B;" cx="196.716" cy="51.189" r="43.116"/>
	<circle style="fill:#ED593B;" cx="315.284" cy="51.189" r="43.116"/>
	<path style="fill:#ED593B;" d="M471.579,212.872H40.421c-17.86,0-32.337,14.477-32.337,32.337s14.477,32.337,32.337,32.337h431.158
		c17.86,0,32.337-14.477,32.337-32.337S489.439,212.872,471.579,212.872z"/>
</g>
<g>
	<path style="fill:#CC4C37;" d="M470.942,212.872h-90.715l31.457,46.532l1.459,1.459c7.354,7.354,17.016,11.031,26.676,11.031
		c9.661,0,19.322-3.677,26.677-11.031l0.001-0.001C479.532,247.829,481.005,227.556,470.942,212.872z"/>
	<path style="fill:#CC4C37;" d="M41.058,212.872c-10.064,14.684-8.59,34.957,4.442,47.991l0.001,0.001
		c7.354,7.354,17.016,11.031,26.677,11.031c9.66,0,19.321-3.677,26.676-11.031l1.459-1.459l31.457-46.532H41.058V212.872z"/>
</g>
<path style="fill:#ED593B;" d="M40.421,277.545l21.558,226.358h388.042l21.558-226.358H40.421z M137.432,455.398
	c0,8.925-7.243,16.168-16.168,16.168s-16.168-7.243-16.168-16.168V326.051c0-8.925,7.243-16.168,16.168-16.168
	s16.168,7.243,16.168,16.168V455.398z M204.8,455.398c0,8.925-7.243,16.168-16.168,16.168c-8.925,0-16.168-7.243-16.168-16.168
	V326.051c0-8.925,7.243-16.168,16.168-16.168c8.925,0,16.168,7.243,16.168,16.168V455.398z M272.168,455.398
	c0,8.925-7.243,16.168-16.168,16.168c-8.925,0-16.168-7.243-16.168-16.168V326.051c0-8.925,7.243-16.168,16.168-16.168
	c8.925,0,16.168,7.243,16.168,16.168V455.398z"/>
<g>
	<path style="fill:#E0E0E0;" d="M60.746,245.619L60.746,245.619c6.314,6.314,16.551,6.314,22.865,0L207.327,62.621
		c6.314-6.314,6.314-16.551,0-22.865l0,0c-6.314-6.314-16.551-6.314-22.865,0L60.746,222.754
		C54.432,229.068,54.432,239.305,60.746,245.619z"/>
	<path style="fill:#E0E0E0;" d="M451.254,245.619L451.254,245.619c-6.314,6.314-16.551,6.314-22.865,0L304.673,62.621
		c-6.314-6.314-6.314-16.551,0-22.865l0,0c6.314-6.314,16.551-6.314,22.865,0l123.715,183
		C457.568,229.068,457.568,239.305,451.254,245.619z"/>
</g>
<polygon style="fill:#CC4C37;" points="471.579,277.545 469.531,299.103 42.469,299.103 40.421,277.545 "/>
<circle style="fill:#A0CBB1;" cx="406.905" cy="406.894" r="97.011"/>
<g>
	<polygon style="fill:#FFFFFF;" points="471.579,390.724 423.074,390.724 423.074,342.219 390.737,342.219 390.737,390.724 
		342.232,390.724 342.232,423.061 390.737,423.061 390.737,471.566 423.074,471.566 423.074,423.061 471.579,423.061 	"/>
	<path style="fill:#FFFFFF;" d="M80.842,406.893H64.674v-16.168h16.168V406.893z M80.842,374.556H64.674v-64.674h16.168V374.556z"/>
</g>
<path d="M97.011,326.051v129.347c0,13.373,10.88,24.253,24.253,24.253s24.253-10.879,24.253-24.253V326.051
	c0-13.373-10.88-24.253-24.253-24.253S97.011,312.677,97.011,326.051z M129.347,326.051v129.347c0,4.458-3.626,8.084-8.084,8.084
	s-8.084-3.626-8.084-8.084V326.051c0-4.458,3.626-8.084,8.084-8.084S129.347,321.592,129.347,326.051z"/>
<path d="M164.379,326.051v129.347c0,13.373,10.88,24.253,24.253,24.253c13.372,0,24.253-10.879,24.253-24.253V326.051
	c0-13.373-10.88-24.253-24.253-24.253C175.259,301.798,164.379,312.677,164.379,326.051z M196.716,326.051v129.347
	c0,4.458-3.626,8.084-8.084,8.084c-4.458,0-8.084-3.626-8.084-8.084V326.051c0-4.458,3.626-8.084,8.084-8.084
	C193.09,317.966,196.716,321.592,196.716,326.051z"/>
<path d="M231.747,326.051v129.347c0,13.373,10.88,24.253,24.253,24.253s24.253-10.879,24.253-24.253V326.051
	c0-13.373-10.88-24.253-24.253-24.253S231.747,312.677,231.747,326.051z M264.084,326.051v129.347c0,4.458-3.626,8.084-8.084,8.084
	s-8.084-3.626-8.084-8.084V326.051c0-4.458,3.626-8.084,8.084-8.084S264.084,321.592,264.084,326.051z"/>
<path d="M49.312,285.63h413.377l-1.209,12.707l16.095,1.533l1.422-14.933C497.752,281.442,512,264.963,512,245.21
	c0-22.289-18.132-40.421-40.421-40.421v16.168c13.372,0,24.253,10.879,24.253,24.253c0,13.373-10.88,24.253-24.253,24.253H40.421
	c-13.372,0-24.253-10.879-24.253-24.253c0-13.373,10.88-24.253,24.253-24.253v-16.168C18.132,204.789,0,222.921,0,245.21
	c0,19.755,14.248,36.233,33.004,39.727l21.625,227.052h276.824V495.82H69.329L49.312,285.63z"/>
<path d="M315.149,102.407c2.12,0,4.253-0.141,6.388-0.409l100.155,148.149l0.432,0.641l0.549,0.548
	c4.728,4.728,10.937,7.091,17.148,7.091c6.212,0,12.422-2.364,17.149-7.091h0.001c9.254-9.255,9.452-24.19,0.591-33.686
	l-96.73-143.082c10.011-19.513,6.456-43.785-9.343-59.584c-19.964-19.964-52.445-19.964-72.408,0
	c-9.671,9.67-14.997,22.527-14.997,36.203s5.325,26.533,14.996,36.203C288.839,97.15,301.752,102.408,315.149,102.407z
	 M444.991,227.922l0.548,0.548c3.152,3.152,3.152,8.28,0.001,11.432c-2.999,2.999-7.787,3.145-10.962,0.437L311.37,58.092
	l-0.432-0.641l-0.549-0.548c-1.526-1.527-2.367-3.557-2.367-5.716c0-2.159,0.841-4.189,2.368-5.716
	c1.526-1.527,3.557-2.368,5.716-2.368c1.943,0,3.782,0.681,5.243,1.931l123.209,182.248L444.991,227.922z M290.514,26.416
	c13.657-13.659,35.884-13.659,49.541,0c8.437,8.437,11.777,20.403,9.585,31.595l-15.403-22.785l-0.432-0.641l-0.548-0.548
	c-4.581-4.581-10.671-7.103-17.149-7.103c-6.478,0-12.568,2.523-17.148,7.103c-4.581,4.581-7.104,10.671-7.104,17.149
	c0,6.195,2.307,12.035,6.514,16.538l12.302,18.197c-7.513-0.984-14.587-4.397-20.156-9.964
	c-6.617-6.617-10.262-15.414-10.262-24.771C280.253,41.83,283.897,33.032,290.514,26.416z"/>
<path d="M55.03,251.336c4.728,4.728,10.937,7.091,17.149,7.091c6.211,0,12.421-2.364,17.148-7.091l0.549-0.548l100.587-148.789
	c2.134,0.266,4.266,0.409,6.388,0.409c13.396,0,26.31-5.257,36.07-15.016c9.671-9.671,14.996-22.529,14.996-36.204
	c0-13.676-5.326-26.533-14.996-36.203c-19.964-19.964-52.444-19.964-72.409,0c-15.799,15.799-19.356,40.071-9.344,59.584
	L54.437,217.65C45.577,227.145,45.775,242.08,55.03,251.336L55.03,251.336z M171.946,26.416c13.657-13.659,35.883-13.659,49.542,0
	c6.616,6.616,10.26,15.414,10.26,24.771s-3.644,18.154-10.262,24.771c-5.568,5.567-12.64,8.98-20.154,9.963l12.301-18.196
	c4.207-4.505,6.514-10.345,6.514-16.538c0-6.478-2.523-12.568-7.103-17.149c-4.581-4.581-10.671-7.103-17.149-7.103
	c-6.478,0-12.568,2.523-17.149,7.103l-0.548,0.548l-15.836,23.425C160.168,46.819,163.508,34.853,171.946,26.416z M66.462,228.47
	l0.548-0.548L190.65,45.034c1.461-1.249,3.301-1.931,5.243-1.931c2.159,0,4.19,0.841,5.717,2.368
	c1.526,1.527,2.367,3.557,2.367,5.716c0,2.159-0.841,4.189-2.367,5.716l-0.549,0.548L77.423,240.34
	c-3.175,2.709-7.962,2.561-10.962-0.437C63.31,236.75,63.31,231.622,66.462,228.47z"/>
<rect x="137.432" y="204.789" width="237.137" height="16.168"/>
<rect x="218.274" y="237.125" width="16.168" height="16.168"/>
<rect x="282.947" y="237.125" width="16.168" height="16.168"/>
<rect x="250.611" y="237.125" width="16.168" height="16.168"/>
<path d="M406.905,301.798c-57.95,0-105.095,47.145-105.095,105.095s47.145,105.095,105.095,105.095S512,464.842,512,406.893
	S464.855,301.798,406.905,301.798z M406.905,495.819c-49.033,0-88.926-39.892-88.926-88.926s39.893-88.926,88.926-88.926
	s88.926,39.892,88.926,88.926S455.939,495.819,406.905,495.819z"/>
<path d="M431.158,334.135h-48.505v48.505h-48.505v48.505h48.505v48.505h48.505v-48.505h48.505V382.64h-48.505V334.135z
	 M463.495,398.809v16.168h-48.505v48.505h-16.168v-48.505h-48.505v-16.168h48.505v-48.505h16.168v48.505H463.495z"/>
<g>
</g>
<g>
</g>
<g>
</g>
<g>
</g>
<g>
</g>
<g>
</g>
<g>
</g>
<g>
</g>
<g>
</g>
<g>
</g>
<g>
</g>
<g>
</g>
<g>
</g>
<g>
</g>
<g>
</g>
</svg>
